<svg width="81" height="19" viewBox="0 0 81 19" fill="none" xmlns="http://www.w3.org/2000/svg">
<path d="M14.7884 1.39911V12.3905C14.7884 13.5601 14.5289 14.6174 14.0099 15.5624C13.4987 16.4996 12.7203 17.2432 11.6746 17.7932C10.6366 18.3431 9.32758 18.6181 7.74743 18.6181C5.50113 18.6181 3.7893 18.0449 2.61193 16.8985C1.43457 15.7522 0.845883 14.234 0.845883 12.344V1.39911H4.43608V11.7979C4.43608 13.1999 4.72268 14.1836 5.29587 14.7491C5.86906 15.3145 6.71723 15.5972 7.84038 15.5972C8.63045 15.5972 9.26949 15.4617 9.75747 15.1906C10.2532 14.9195 10.6173 14.5012 10.8496 13.9358C11.082 13.3703 11.1982 12.6499 11.1982 11.7747V1.39911H14.7884Z" fill="#45B871"/>
<path d="M17.5188 13.4594V10.5547H23.7581V13.4594H17.5188ZM33.8315 4.15276C33.1422 4.15276 32.5302 4.28831 31.9958 4.55942C31.4691 4.82277 31.0237 5.20619 30.6596 5.70967C30.3033 6.21315 30.0322 6.8212 29.8463 7.53382C29.6604 8.24644 29.5675 9.04813 29.5675 9.9389C29.5675 11.1395 29.7146 12.1658 30.009 13.0179C30.3111 13.8622 30.7758 14.5089 31.4032 14.9582C32.0306 15.3997 32.8401 15.6205 33.8315 15.6205C34.5209 15.6205 35.2103 15.543 35.8997 15.3881C36.5968 15.2332 37.352 15.0124 38.1653 14.7258V17.7467C37.414 18.0565 36.6743 18.2773 35.9462 18.409C35.2181 18.5484 34.4009 18.6181 33.4946 18.6181C31.744 18.6181 30.3033 18.2579 29.1724 17.5376C28.0493 16.8095 27.2166 15.7948 26.6744 14.4935C26.1322 13.1844 25.8611 11.6585 25.8611 9.91567C25.8611 8.62986 26.0354 7.45249 26.3839 6.38356C26.7325 5.31464 27.2437 4.38901 27.9176 3.60668C28.5915 2.82435 29.4242 2.22017 30.4156 1.79415C31.4071 1.36813 32.5457 1.15512 33.8315 1.15512C34.6758 1.15512 35.5201 1.26356 36.3644 1.48044C37.2165 1.68958 38.0298 1.98005 38.8044 2.35185L37.6425 5.27978C37.0073 4.97769 36.3683 4.71433 35.7254 4.4897C35.0825 4.26507 34.4512 4.15276 33.8315 4.15276ZM52.9909 11.9257C52.9909 12.9946 52.8515 13.9435 52.5726 14.7723C52.2938 15.6011 51.8871 16.3021 51.3526 16.8753C50.8182 17.4407 50.1753 17.8745 49.4239 18.1766C48.6726 18.4709 47.8244 18.6181 46.8794 18.6181C45.9964 18.6181 45.1869 18.4709 44.4511 18.1766C43.7152 17.8745 43.0762 17.4407 42.534 16.8753C41.9995 16.3021 41.5851 15.6011 41.2908 14.7723C40.9964 13.9435 40.8493 12.9946 40.8493 11.9257C40.8493 10.5082 41.0933 9.30762 41.5813 8.32389C42.077 7.33243 42.7819 6.57721 43.6959 6.05824C44.6099 5.53927 45.6982 5.27978 46.9607 5.27978C48.1459 5.27978 49.1915 5.53927 50.0978 6.05824C51.0041 6.57721 51.7128 7.33243 52.224 8.32389C52.7353 9.31536 52.9909 10.516 52.9909 11.9257ZM43.661 11.9257C43.661 12.863 43.7733 13.6647 43.998 14.3308C44.2303 14.9969 44.5866 15.5082 45.0669 15.8645C45.5471 16.213 46.1668 16.3873 46.9259 16.3873C47.685 16.3873 48.3047 16.213 48.7849 15.8645C49.2651 15.5082 49.6176 14.9969 49.8422 14.3308C50.0668 13.6647 50.1791 12.863 50.1791 11.9257C50.1791 10.9885 50.0668 10.1945 49.8422 9.54386C49.6176 8.88547 49.2651 8.38586 48.7849 8.04504C48.3047 7.69648 47.6811 7.5222 46.9143 7.5222C45.7834 7.5222 44.9584 7.90175 44.4395 8.66084C43.9205 9.41993 43.661 10.5082 43.661 11.9257ZM60.4501 18.6181C58.9165 18.6181 57.6849 18.0604 56.7554 16.945C55.8336 15.8219 55.3727 14.1681 55.3727 11.9838C55.3727 9.77624 55.8414 8.10701 56.7786 6.97612C57.7236 5.84523 58.9668 5.27978 60.5082 5.27978C61.1589 5.27978 61.7282 5.36886 62.2162 5.54701C62.7042 5.71742 63.1224 5.94979 63.471 6.24414C63.8273 6.53848 64.1294 6.86768 64.3773 7.23173H64.5051C64.4663 6.99161 64.4199 6.64692 64.3657 6.19766C64.3192 5.74066 64.2959 5.31851 64.2959 4.93122V0.30695H67.038V18.3857H64.9001L64.4121 16.6313H64.2959C64.0636 17.0031 63.7692 17.3401 63.4129 17.6421C63.0644 17.9365 62.6461 18.1727 62.1581 18.3509C61.6778 18.529 61.1085 18.6181 60.4501 18.6181ZM61.217 16.3989C62.3866 16.3989 63.2115 16.062 63.6918 15.3881C64.172 14.7142 64.4199 13.7034 64.4354 12.3556V11.9954C64.4354 10.5547 64.203 9.45091 63.7382 8.68408C63.2735 7.90949 62.4253 7.5222 61.1937 7.5222C60.21 7.5222 59.4587 7.92111 58.9397 8.71893C58.4285 9.50901 58.1729 10.6128 58.1729 12.0303C58.1729 13.4478 58.4285 14.5322 58.9397 15.2835C59.4587 16.0271 60.2178 16.3989 61.217 16.3989ZM75.996 5.27978C77.6227 5.27978 78.8504 5.63996 79.6792 6.36032C80.5157 7.08069 80.934 8.20383 80.934 9.72976V18.3857H78.9937L78.4708 16.5616H78.3779C78.0138 17.0263 77.6382 17.4098 77.2509 17.7119C76.8636 18.0139 76.4143 18.2386 75.9031 18.3857C75.3996 18.5407 74.7838 18.6181 74.0557 18.6181C73.2889 18.6181 72.6034 18.4787 71.9992 18.1998C71.395 17.9132 70.9186 17.4795 70.5701 16.8985C70.2215 16.3176 70.0472 15.5817 70.0472 14.691C70.0472 13.3664 70.5391 12.3711 71.5228 11.705C72.5143 11.0388 74.0092 10.6709 76.0077 10.6012L78.2385 10.5198V9.84595C78.2385 8.95518 78.0293 8.32002 77.611 7.94048C77.2005 7.56093 76.6196 7.37116 75.8682 7.37116C75.2253 7.37116 74.6018 7.46411 73.9976 7.65001C73.3934 7.83591 72.8047 8.06441 72.2316 8.33551L71.3485 6.4068C71.9759 6.07373 72.6886 5.80262 73.4864 5.59349C74.292 5.38435 75.1285 5.27978 75.996 5.27978ZM78.2268 12.2394L76.5654 12.2975C75.2021 12.344 74.2455 12.5764 73.6955 12.9946C73.1456 13.4129 72.8706 13.9861 72.8706 14.7142C72.8706 15.3494 73.0604 15.8141 73.4399 16.1085C73.8195 16.3951 74.3191 16.5384 74.9387 16.5384C75.8837 16.5384 76.6661 16.2711 77.2857 15.7367C77.9131 15.1945 78.2268 14.4005 78.2268 13.3548V12.2394Z" fill="#242323"/>
</svg>
